<svg xmlns="http://www.w3.org/2000/svg" xmlns:xlink="http://www.w3.org/1999/xlink" width="19.957" height="19.961" viewBox="0 0 19.957 19.961">
  <defs>
    <clipPath id="clip-path">
      <path id="Clip_2" data-name="Clip 2" d="M0,0H19.957V19.961H0Z" transform="translate(0 0)" fill="none"/>
    </clipPath>
  </defs>
  <g id="instagram" transform="translate(0 -0.039)">
    <g id="instagram-2" data-name="instagram" transform="translate(0 0.039)">
      <path id="Clip_2-2" data-name="Clip 2" d="M0,0H19.957V19.961H0Z" transform="translate(0 0)" fill="none"/>
      <g id="Group_3" data-name="Group 3" clip-path="url(#clip-path)">
        <path id="Fill_1" data-name="Fill 1" d="M9.978,19.961c-2.681,0-3.037-.011-4.114-.059a7.361,7.361,0,0,1-2.421-.464,4.94,4.94,0,0,1-1.767-1.15,4.9,4.9,0,0,1-1.154-1.77A7.326,7.326,0,0,1,.059,14.1C.011,13.02,0,12.664,0,9.983c0-2.7.012-3.053.062-4.118A7.362,7.362,0,0,1,.527,3.443a4.94,4.94,0,0,1,1.15-1.767A4.847,4.847,0,0,1,3.447.523,7.326,7.326,0,0,1,5.869.058C6.945.011,7.3,0,9.983,0c2.7,0,3.053.012,4.117.062a7.362,7.362,0,0,1,2.421.464,4.93,4.93,0,0,1,1.767,1.15,4.861,4.861,0,0,1,1.155,1.77,7.328,7.328,0,0,1,.464,2.422c.047,1.068.051,1.414.051,4.114,0,2.681-.011,3.037-.059,4.113a7.364,7.364,0,0,1-.464,2.422,5.115,5.115,0,0,1-2.92,2.92,7.326,7.326,0,0,1-2.422.464C13.016,19.95,12.659,19.961,9.978,19.961ZM9.99,1.813c-2.716,0-2.995.012-4.032.059a5.468,5.468,0,0,0-1.852.343,3.071,3.071,0,0,0-1.146.744,3.046,3.046,0,0,0-.749,1.147,5.48,5.48,0,0,0-.344,1.852C1.82,7.019,1.809,7.369,1.809,9.99c0,2.716.012,2.995.058,4.032a5.483,5.483,0,0,0,.344,1.852,3.082,3.082,0,0,0,.744,1.147,3.09,3.09,0,0,0,1.147.745,5.517,5.517,0,0,0,1.852.343c1.061.047,1.411.059,4.032.059,2.716,0,2.995-.012,4.032-.059a5.519,5.519,0,0,0,1.852-.343,3.316,3.316,0,0,0,1.9-1.9,5.517,5.517,0,0,0,.343-1.852c.046-1.037.059-1.316.059-4.028S18.155,7,18.109,5.958a5.519,5.519,0,0,0-.343-1.852,3.1,3.1,0,0,0-.745-1.147,3.077,3.077,0,0,0-1.147-.744,5.464,5.464,0,0,0-1.852-.343C12.962,1.825,12.612,1.813,9.99,1.813Z" transform="translate(0 0)" fill="#939393"/>
      </g>
    </g>
    <path id="Fill_4" data-name="Fill 4" d="M5.127,10.255a5.128,5.128,0,1,1,5.128-5.128A5.134,5.134,0,0,1,5.127,10.255Zm0-8.454A3.326,3.326,0,1,0,8.454,5.127,3.329,3.329,0,0,0,5.127,1.8Z" transform="translate(4.855 4.894)" fill="#939393"/>
    <path id="Fill_6" data-name="Fill 6" d="M2.394,1.2A1.2,1.2,0,1,1,1.2,0a1.2,1.2,0,0,1,1.2,1.2" transform="translate(14.116 3.494)" fill="#939393"/>
  </g>
</svg>
