<svg xmlns="http://www.w3.org/2000/svg" xmlns:xlink="http://www.w3.org/1999/xlink" width="17" height="15.976" viewBox="0 0 17 15.976">
  <defs>
    <clipPath id="clip-path">
      <path id="Clip_2" data-name="Clip 2" d="M0,0H3.979V3.958H0Z" transform="translate(0 0.024)" fill="none"/>
    </clipPath>
    <clipPath id="clip-path-2">
      <path id="Clip_5" data-name="Clip 5" d="M0,11H17V0H0Z" transform="translate(0 5)" fill="none"/>
    </clipPath>
  </defs>
  <g id="linkedin" transform="translate(0 -0.024)">
    <g id="Group_3" data-name="Group 3">
      <path id="Clip_2-2" data-name="Clip 2" d="M0,0H3.979V3.958H0Z" transform="translate(0 0.024)" fill="none"/>
      <g id="Group_3-2" data-name="Group 3" clip-path="url(#clip-path)">
        <path id="Fill_1" data-name="Fill 1" d="M2,0A1.909,1.909,0,0,0,0,1.979,1.9,1.9,0,0,0,1.955,3.958h.023a1.909,1.909,0,0,0,2-1.979A1.9,1.9,0,0,0,2,0" transform="translate(0 0.024)" fill="#939393"/>
      </g>
    </g>
    <path id="Clip_5-2" data-name="Clip 5" d="M0,11H17V0H0Z" transform="translate(0 5)" fill="none"/>
    <g id="Mask_Group_1" data-name="Mask Group 1" clip-path="url(#clip-path-2)">
      <path id="Fill_4" data-name="Fill 4" d="M0,11H4V0H0Z" transform="translate(0 5)" fill="#939393"/>
      <path id="Fill_6" data-name="Fill 6" d="M6.851,0A4.52,4.52,0,0,0,3.6,1.811V.252H0V11H3.6V5a2.429,2.429,0,0,1,.119-.872A1.971,1.971,0,0,1,5.571,2.82c1.3,0,1.825.986,1.825,2.43V11H11V4.837C11,1.536,9.222,0,6.851,0" transform="translate(6 5)" fill="#939393"/>
    </g>
  </g>
</svg>
