<svg xmlns="http://www.w3.org/2000/svg" width="17.111" height="11.667" viewBox="0 0 17.111 11.667">
  <g id="nav" transform="translate(-9.116 -11.978)">
    <path id="Shape" d="M15.944,0H1.167a1.167,1.167,0,0,0,0,2.333H15.944a1.167,1.167,0,0,0,0-2.333Z" transform="translate(9.116 16.645)" fill="#fff"/>
    <path id="Shape-2" data-name="Shape" d="M15.944,0H1.167a1.167,1.167,0,0,0,0,2.333H15.944a1.167,1.167,0,0,0,0-2.333Z" transform="translate(9.116 11.978)" fill="#fff"/>
    <path id="Shape-3" data-name="Shape" d="M15.944,0H1.167a1.167,1.167,0,0,0,0,2.333H15.944a1.167,1.167,0,0,0,0-2.333Z" transform="translate(9.116 21.311)" fill="#fff"/>
  </g>
</svg>
