<svg id="phone-icon" xmlns="http://www.w3.org/2000/svg" xmlns:xlink="http://www.w3.org/1999/xlink" width="30" height="30" viewBox="0 0 30 30">
  <defs>
    <clipPath id="clip-path">
      <path id="Clip_2" data-name="Clip 2" d="M0,0H30V30H0Z" fill="none"/>
    </clipPath>
  </defs>
  <path id="Clip_2-2" data-name="Clip 2" d="M0,0H30V30H0Z" fill="none"/>
  <g id="Group_3" data-name="Group 3" clip-path="url(#clip-path)">
    <path id="Fill_1" data-name="Fill 1" d="M21.561,30a8.376,8.376,0,0,1-2.867-.512A30.566,30.566,0,0,1,7.59,22.41a30.582,30.582,0,0,1-7.078-11.1A8.3,8.3,0,0,1,.089,7.228,8.506,8.506,0,0,1,4.462,1a8.36,8.36,0,0,1,4-1,.943.943,0,0,1,.917.741L10.85,7.608a.935.935,0,0,1-.254.859L8.082,10.982A24.79,24.79,0,0,0,19.019,21.918L21.533,19.4a.938.938,0,0,1,.859-.254l6.867,1.472a.941.941,0,0,1,.741.916,8.35,8.35,0,0,1-1,4A8.444,8.444,0,0,1,21.561,30ZM7.713,1.916a6.57,6.57,0,0,0-5.439,8.751,28.436,28.436,0,0,0,17.06,17.059,6.569,6.569,0,0,0,2.248.4,6.6,6.6,0,0,0,6.5-5.839L22.5,21.09l-2.626,2.626a.935.935,0,0,1-1.061.185A26.542,26.542,0,0,1,6.1,11.19a.942.942,0,0,1,.185-1.062L8.91,7.5Z" fill="#3e3e3e"/>
  </g>
</svg>
