<svg id="twitter" xmlns="http://www.w3.org/2000/svg" xmlns:xlink="http://www.w3.org/1999/xlink" width="19.725" height="16" viewBox="0 0 19.725 16">
  <defs>
    <clipPath id="clip-path">
      <path id="Clip_2" data-name="Clip 2" d="M0,0H19.725V16H0Z" fill="none"/>
    </clipPath>
  </defs>
  <path id="Clip_2-2" data-name="Clip 2" d="M0,0H19.725V16H0Z" fill="none"/>
  <g id="Group_3" data-name="Group 3" clip-path="url(#clip-path)">
    <path id="Fill_1" data-name="Fill 1" d="M6.2,16A11.424,11.424,0,0,0,17.718,4.508q0-.262-.011-.522a8.227,8.227,0,0,0,2.019-2.092A8.085,8.085,0,0,1,17.4,2.53,4.056,4.056,0,0,0,19.18.3a8.126,8.126,0,0,1-2.57.98,4.048,4.048,0,0,0-6.9,3.684A11.5,11.5,0,0,1,1.373.739,4.038,4.038,0,0,0,2.626,6.132,4.021,4.021,0,0,1,.793,5.627c0,.017,0,.033,0,.052a4.042,4.042,0,0,0,3.247,3.96,4.05,4.05,0,0,1-1.828.069,4.05,4.05,0,0,0,3.781,2.805A8.129,8.129,0,0,1,.965,14.242,8.254,8.254,0,0,1,0,14.186,11.472,11.472,0,0,0,6.2,16" fill="#939393"/>
  </g>
</svg>
